<?xml version="1.0" encoding="UTF-8"?>
<!DOCTYPE svg PUBLIC "-//W3C//DTD SVG 1.1//EN" "http://www.w3.org/Graphics/SVG/1.1/DTD/svg11.dtd">
<!-- Creator: CorelDRAW -->
<svg xmlns="http://www.w3.org/2000/svg" xml:space="preserve" width="1.70666in" height="1.70666in" version="1.1" style="shape-rendering:geometricPrecision; text-rendering:geometricPrecision; image-rendering:optimizeQuality; fill-rule:evenodd; clip-rule:evenodd"
viewBox="0 0 1707 1707"
 xmlns:xlink="http://www.w3.org/1999/xlink">
 <defs>
  <style type="text/css">
   <![CDATA[
    .fil0 {fill:#000002}
   ]]>
  </style>
 </defs>
 <g id="Layer_x0020_1">
  <metadata id="CorelCorpID_0Corel-Layer"/>
  <path class="fil0" d="M372 753c-20,0 -41,-5 -59,-16 -27,-16 -47,-41 -55,-72 -8,-30 -4,-62 12,-90 21,-37 60,-59 102,-59 21,0 42,5 60,16 27,16 47,41 55,72 8,30 4,62 -12,90 -21,36 -60,59 -103,59zm380 852c-415,0 -752,-337 -752,-752 0,-414 337,-751 752,-751 414,0 751,337 751,751 0,324 -206,601 -494,706l675 0c30,0 30,46 0,46l-932 0zm0 -1458c-390,0 -706,317 -706,706 0,390 316,706 706,706 389,0 705,-317 705,-706 0,-389 -316,-706 -705,-706zm0 1368c-365,0 -662,-297 -662,-662 0,-364 297,-661 662,-661 364,0 661,297 661,661 0,365 -297,662 -661,662zm0 -1278c-340,0 -616,277 -616,616 0,340 276,616 616,616 339,0 615,-276 615,-616 0,-339 -276,-616 -615,-616zm0 297c-66,0 -119,-53 -119,-118 0,-66 53,-119 119,-119 65,0 118,53 118,119 0,65 -53,118 -118,118zm0 -192c-41,0 -74,33 -74,74 0,40 33,73 74,73 40,0 73,-33 73,-73 0,-41 -33,-74 -73,-74zm0 630c-66,0 -119,-53 -119,-119 0,-65 53,-118 119,-118 65,0 118,53 118,118 0,66 -53,119 -118,119zm0 -192c-41,0 -74,33 -74,73 0,41 33,73 74,73 40,0 73,-32 73,-73 0,-40 -33,-73 -73,-73zm379 -27c-43,0 -82,-23 -103,-59 -16,-28 -20,-60 -12,-90 8,-31 28,-56 55,-72 18,-11 39,-16 60,-16 42,0 81,22 102,59 16,28 20,60 12,90 -8,31 -28,56 -55,72 -18,11 -39,16 -59,16zm0 -192c-13,0 -26,4 -37,10 -17,10 -29,26 -34,45 -5,18 -2,38 7,55 13,23 38,37 64,37 12,0 25,-4 36,-10 17,-10 29,-26 34,-45 5,-18 3,-38 -7,-55 -13,-23 -37,-37 -63,-37zm0 630c-21,0 -42,-6 -60,-16 -27,-16 -47,-41 -55,-72 -8,-31 -4,-63 12,-90 21,-37 60,-60 103,-60 20,0 41,6 59,16 27,16 47,42 55,72 8,31 4,63 -12,91 -21,36 -60,59 -102,59zm0 -192c-26,0 -51,14 -64,37 -9,17 -12,36 -7,55 5,19 17,35 34,45 11,6 24,9 37,9 26,0 50,-14 63,-36 10,-17 12,-37 7,-56 -5,-19 -17,-34 -34,-44 -11,-6 -24,-10 -36,-10zm-379 411c-66,0 -119,-53 -119,-119 0,-65 53,-119 119,-119 65,0 118,54 118,119 0,66 -53,119 -118,119zm0 -192c-41,0 -74,33 -74,73 0,40 33,73 74,73 40,0 73,-33 73,-73 0,-40 -33,-73 -73,-73zm-380 -27c-42,0 -81,-23 -102,-59 -33,-57 -14,-130 43,-163 18,-10 39,-15 59,-15 43,0 82,22 103,59 16,27 20,59 12,90 -8,31 -28,56 -55,72 -18,10 -39,16 -60,16zm0 -192c-12,0 -25,4 -36,10 -35,20 -47,65 -27,100 13,22 37,36 63,36 13,0 26,-3 37,-10 17,-9 29,-25 34,-44 5,-19 2,-38 -7,-55 -13,-23 -38,-37 -64,-37zm0 -438c-26,0 -50,14 -63,37 -10,17 -12,37 -7,55 5,19 17,35 34,45 11,6 24,10 36,10 26,0 51,-14 64,-37 9,-17 12,-37 7,-55 -5,-19 -17,-35 -34,-45 -11,-6 -24,-10 -37,-10z"/>
 </g>
</svg>
